<svg width="900" height="600" viewBox="0 0 900 600" xmlns="http://www.w3.org/2000/svg">

  <defs>
    <!-- Dégradé bois plateau -->
    <linearGradient id="wood-top" x1="0" y1="0" x2="1" y2="0">
      <stop offset="0%" stop-color="#d6a76a"/>
      <stop offset="50%" stop-color="#b6783e"/>
      <stop offset="100%" stop-color="#8c5220"/>
    </linearGradient>

    <!-- Dégradé bois façade -->
    <linearGradient id="wood-front" x1="0" y1="0" x2="0" y2="1">
      <stop offset="0%" stop-color="#9c6230"/>
      <stop offset="100%" stop-color="#5a3013"/>
    </linearGradient>

    <!-- Poignées métalliques -->
    <linearGradient id="handle" x1="0" y1="0" x2="1" y2="1">
      <stop offset="0%" stop-color="#fefefe"/>
      <stop offset="100%" stop-color="#888"/>
    </linearGradient>
  </defs>

  <!-- Plateau avec bords légèrement obliques -->
  <polygon points="250,120 680,120 720,190 180,190"
           fill="url(#wood-top)" stroke="#5a3013" stroke-width="3"/>

  <!-- Ombre sous le plateau -->
  <polygon points="180,190 720,190 705,205 195,205"
           fill="black" opacity="0.25"/>

  <!-- Caisson gauche -->
  <rect x="195" y="205" width="150" height="340" rx="2"
        fill="url(#wood-front)" stroke="#4a2510" stroke-width="2"/>

  <!-- Caisson droit -->
  <rect x="555" y="205" width="150" height="340" rx="2"
        fill="url(#wood-front)" stroke="#4a2510" stroke-width="2"/>

  <!-- Panneau central arrière -->
  <rect x="345" y="205" width="210" height="320" rx="2"
        fill="url(#wood-front)" opacity="0.9"/>

  <!-- Tiroirs gauche -->
  <rect x="205" y="215" width="130" height="70" fill="url(#wood-top)" stroke="#3a1c0f"/>
  <rect x="205" y="295" width="130" height="70" fill="url(#wood-top)" stroke="#3a1c0f"/>
  <rect x="205" y="375" width="130" height="70" fill="url(#wood-top)" stroke="#3a1c0f"/>
  <rect x="205" y="455" width="130" height="90" fill="url(#wood-top)" stroke="#3a1c0f"/>

  <!-- Tiroirs droit -->
  <rect x="565" y="215" width="130" height="70" fill="url(#wood-top)" stroke="#3a1c0f"/>
  <rect x="565" y="295" width="130" height="70" fill="url(#wood-top)" stroke="#3a1c0f"/>
  <rect x="565" y="375" width="130" height="70" fill="url(#wood-top)" stroke="#3a1c0f"/>
  <rect x="565" y="455" width="130" height="90" fill="url(#wood-top)" stroke="#3a1c0f"/>

  <!-- Poignées gauche -->
  <rect x="250" y="245" width="40" height="6" rx="3" fill="url(#handle)"/>
  <rect x="250" y="325" width="40" height="6" rx="3" fill="url(#handle)"/>
  <rect x="250" y="405" width="40" height="6" rx="3" fill="url(#handle)"/>
  <rect x="250" y="485" width="40" height="6" rx="3" fill="url(#handle)"/>

  <!-- Poignées droite -->
  <rect x="610" y="245" width="40" height="6" rx="3" fill="url(#handle)"/>
  <rect x="610" y="325" width="40" height="6" rx="3" fill="url(#handle)"/>
  <rect x="610" y="405" width="40" height="6" rx="3" fill="url(#handle)"/>
  <rect x="610" y="485" width="40" height="6" rx="3" fill="url(#handle)"/>



</svg>