<?xml version="1.0" ?><svg data-name="Layer 1" id="Layer_1" viewBox="0 0 272 272" xmlns="http://www.w3.org/2000/svg"><defs><style>.cls-1{fill:#f3f4f2;}.cls-2{fill:#efefef;}.cls-3{fill:#d7d8da;}</style></defs><title/><polygon class="cls-1" points="48 264 224 264 224 40 192 40 192 8 48 8 48 264"/><polygon class="cls-2" points="192 40 224 40 192 8 192 40"/><rect class="cls-3" height="8" width="112" x="96" y="68"/><rect class="cls-3" height="8" width="112" x="96" y="100"/><rect class="cls-3" height="8" width="112" x="96" y="132"/><rect class="cls-3" height="8" width="112" x="96" y="164"/><rect class="cls-3" height="8" width="112" x="96" y="196"/><rect class="cls-3" height="16" width="16" x="64" y="64"/><rect class="cls-3" height="16" width="16" x="64" y="96"/><rect class="cls-3" height="16" width="16" x="64" y="128"/><rect class="cls-3" height="16" width="16" x="64" y="160"/><rect class="cls-3" height="16" width="16" x="64" y="192"/></svg>