<?xml version="1.0" ?><svg enable-background="new 0 0 64 64" id="Слой_1" version="1.1" viewBox="0 0 64 64" xml:space="preserve" xmlns="http://www.w3.org/2000/svg" xmlns:xlink="http://www.w3.org/1999/xlink"><g id="row_3"><g id="floor_x5F_lamp"><rect fill="#3E2723" height="44" width="2" x="31" y="16"/><rect fill="#3E2723" height="2.5" width="4" x="30" y="44.5"/><g><rect fill="#5D4037" height="1" width="4" x="30" y="28"/><rect fill="#5D4037" height="1" width="4" x="30" y="55"/><rect fill="#5D4037" height="1" width="6" x="29" y="43.5"/></g><path d="M34.9,23.3C34.2,22.5,33.1,22,32,22s-2.2,0.5-2.9,1.3C29,23.5,29,23.7,29,24c0,1.7,1.3,3,3,3s3-1.3,3-3    C35,23.7,35,23.5,34.9,23.3z" fill="#6D4C41"/><path d="M26,48.6c0,0.1,0,0.3,0,0.4c0,3.3,2.7,6,6,6s6-2.7,6-6c0-0.1,0-0.3,0-0.4c-1.8-1-3.8-1.6-6-1.6    S27.8,47.6,26,48.6z" fill="#6D4C41"/><path d="M32,60c1.4,0,2.7,0.2,3.9,0.6c0.9,0.3,1.9,0.4,2.9,0.4H41v-1c0-0.6-0.4-1-1-1H24c-0.6,0-1,0.4-1,1v1h2.2    c1,0,1.9-0.1,2.9-0.4C29.3,60.2,30.6,60,32,60z" fill="#4E342E"/><g><path d="M27,5c0,5.5-1.9,10.6-5,14.6c4,0.5,9.9,0.6,14.9,0.4C35.7,15.2,35,10.2,35,5H27z" fill="#FFAB91"/><path d="M26,5c0,6-3.7,11.1-9,13.1c0,0.7,2,1.2,5,1.6c3.1-4.1,5-9.1,5-14.6H26z" fill="#FFCCBC"/><path d="M47,18.1C41.7,16,38,11,38,5h-3c0,5.2,0.7,10.2,1.9,15C42.4,19.8,47,19.1,47,18.1z" fill="#FFCCBC"/><path d="M38,5H26V3h12V5z M47,18c0,0.6-6.7,1-15,1s-15-0.4-15-1v2c0,0.6,6.7,1,15,1s15-0.4,15-1V18z" fill="#FF8A65"/></g></g></g></svg>