<?xml version="1.0" ?><!DOCTYPE svg  PUBLIC '-//W3C//DTD SVG 1.1//EN'  'http://www.w3.org/Graphics/SVG/1.1/DTD/svg11.dtd'><svg enable-background="new 0 0 1024 1024" height="1024px" version="1.1" viewBox="0 0 1024 1024" width="1024px" xml:space="preserve" xmlns="http://www.w3.org/2000/svg" xmlns:xlink="http://www.w3.org/1999/xlink"><defs/><path d="M294.351,262.666c0,2.025-1.642,3.667-3.667,3.667l0,0c-2.025,0-3.667-1.642-3.667-3.667v-57.999  c0-2.025,1.642-3.667,3.667-3.667l0,0c2.025,0,3.667,1.642,3.667,3.667V262.666z" fill="#696971"/><path d="M786.532,262.666c0,2.025-1.642,3.667-3.667,3.667l0,0c-2.025,0-3.666-1.642-3.666-3.667v-57.999  c0-2.025,1.641-3.667,3.666-3.667l0,0c2.025,0,3.667,1.642,3.667,3.667V262.666z" fill="#696971"/><path d="M293.851,129.333c0-1.933-1.567-3.5-3.5-3.5l0,0c-1.933,0-3.5,1.567-3.5,3.5v30c0,1.933,1.567,3.5,3.5,3.5  l0,0c1.933,0,3.5-1.567,3.5-3.5V129.333z" fill="#696971"/><path d="M294.351,342.999c0,2.025-1.642,3.667-3.667,3.667l0,0c-2.025,0-3.667-1.642-3.667-3.667V285  c0-2.025,1.642-3.667,3.667-3.667l0,0c2.025,0,3.667,1.642,3.667,3.667V342.999z" fill="#696971"/><path d="M784.197,948.333c0,37.556-30.444,68-68,68H357.532c-37.555,0-68-30.444-68-68V75.667  c0-37.555,30.445-68,68-68h358.665c37.556,0,68,30.445,68,68V948.333z" fill="#808080"/><path d="M777.865,73.666c0-33.137-26.863-60-60-60h-362c-33.137,0-60,26.863-60,60v876c0,33.137,26.863,60,60,60h362  c33.137,0,60-26.863,60-60V73.666z" fill="#080808"/><rect fill="#524D61" height="777" width="438" x="317.865" y="123.166"/><circle cx="536.865" cy="40.416" fill="#484848" r="5"/><circle cx="468.018" cy="68.416" fill="#464646" r="7.5"/><path d="M571.115,68.666c0,2.347-1.903,4.25-4.25,4.25h-60c-2.347,0-4.25-1.903-4.25-4.25l0,0  c0-2.347,1.903-4.25,4.25-4.25h60C569.212,64.416,571.115,66.319,571.115,68.666L571.115,68.666z" fill="#464646"/><circle cx="468.115" cy="68.318" fill="#29304D" r="4.597"/><ellipse cx="536.865" cy="955.166" fill="none" rx="31.5" ry="32" stroke="#4F5052" stroke-miterlimit="10" stroke-width="4"/></svg>